<svg xmlns="http://www.w3.org/2000/svg" viewBox="0 0 680 190" role="img" aria-labelledby="title desc">
  <title id="title">Brightstar Preschool</title>
  <desc id="desc">Brightstar Preschool colorful logo mark.</desc>
  <rect width="680" height="190" fill="none"/>
  <g transform="translate(16 14)">
    <path d="M78 15c31 0 54 21 59 50 24 5 42 24 42 51 0 32-25 55-59 55H61L4 35C21 22 49 15 78 15z" fill="#ffc928"/>
    <path d="M78 15c31 0 54 21 59 50 24 5 42 24 42 51 0 32-25 55-59 55H61L4 35C21 22 49 15 78 15z" fill="none" stroke="#1777bd" stroke-width="12" stroke-linejoin="round"/>
    <path d="M72 67l36 36M108 67l-36 36" stroke="#111827" stroke-width="13" stroke-linecap="round" stroke-dasharray="4 9"/>
    <circle cx="64" cy="132" r="12" fill="#111827"/>
    <path d="M132 2l6 13 14 2-10 10 2 14-12-7-13 7 3-14-10-10 14-2 6-13zM105 0l3 8 9 1-7 6 2 9-7-5-8 5 2-9-6-6 9-1 3-8z" fill="#ffc928"/>
  </g>
  <g font-family="Arial, Helvetica, sans-serif" font-weight="900">
    <text x="235" y="86" font-size="54" fill="#ffc928">BRIGHT</text>
    <text x="458" y="86" font-size="54" fill="#ef476f">STAR</text>
    <text x="339" y="132" font-size="29" fill="#ffffff">PRE-SCHOOL</text>
    <path d="M287 110c62-15 198-20 300-4" fill="none" stroke="#4897cf" stroke-width="10" stroke-linecap="round"/>
    <path d="M285 145c86 13 221 11 307-1l-17 26H303z" fill="#ffc928"/>
    <rect x="316" y="103" width="254" height="44" rx="6" fill="#4897cf" transform="rotate(-3 443 125)"/>
    <text x="351" y="134" font-size="28" fill="#ffffff" font-weight="500">PRE-SCHOOL</text>
    <text x="329" y="178" font-size="14" fill="#1777bd" letter-spacing="1.6">EDUCATION MAKES A BRIGHT FUTURE</text>
  </g>
</svg>
