<svg xmlns="http://www.w3.org/2000/svg" viewBox="0 0 360 220" role="img" aria-labelledby="title desc">
  <title id="title">Spy Sense</title>
  <desc id="desc">Spy Sense logo with hooded spy mark.</desc>
  <rect width="360" height="220" fill="none"/>
  <g transform="translate(55 10)">
    <path d="M125 8c40 17 62 57 76 116-56-22-101-22-152 0C63 65 85 25 125 8z" fill="#070707"/>
    <path d="M69 126c37-26 76-26 112 0-23 37-86 37-112 0z" fill="#f8f8f8" stroke="#111" stroke-width="4"/>
    <path d="M116 103l60 35c-23 23-58 25-85 5z" fill="#d7b03b"/>
    <path d="M25 113c-22 0-35 11-25 29 8 14 29 14 44 1M225 113c22 0 35 11 25 29-8 14-29 14-44 1" fill="none" stroke="#d7b03b" stroke-width="16" stroke-linecap="round"/>
    <path d="M36 131c-18-4-29 0-33 9M214 131c18-4 29 0 33 9" fill="none" stroke="#f1cb56" stroke-width="7" stroke-linecap="round"/>
  </g>
  <text x="180" y="190" text-anchor="middle" font-family="Arial Black, Impact, sans-serif" font-size="43" fill="#111" stroke="#d7b03b" stroke-width="1.2" letter-spacing="2">Spy Sense</text>
</svg>
